<?xml version="1.0" encoding="UTF-8"?>
<svg width="292px" height="306px" viewBox="0 0 292 306" version="1.1" xmlns="http://www.w3.org/2000/svg" xmlns:xlink="http://www.w3.org/1999/xlink">
    <!-- Generator: Sketch 53.2 (72643) - https://sketchapp.com -->
    <title>icon-insect</title>
    <desc>Created with Sketch.</desc>
    <g id="Page-1" stroke="none" stroke-width="1" fill="none" fill-rule="evenodd">
        <g id="icon-insect" fill="#000000" fill-rule="nonzero">
            <path d="M193.378336,49.6544746 C196.3889,52.5994237 199.121688,55.7847325 201.683875,59.3652849 C206.940807,66.6453482 210.489857,75.1680912 212.359513,84.0081549 C212.669395,84.0145303 212.978185,84.0253281 213.284741,84.042832 C220.349131,84.5227706 227.172921,87.1953267 232.145271,92.4035374 C237.117307,97.577601 239.8607,104.293608 239.997868,111.488928 C240.135192,119.164185 233.619475,124.852097 226.281062,125.194745 C222.851703,125.366107 218.942273,123.550047 216.576147,121.185817 C214.038585,118.650162 212.632592,115.05219 212.564005,111.488677 C212.564005,110.8719 212.495418,110.255185 212.392543,109.569862 C212.529711,110.769145 212.701173,112.002637 212.872635,113.20192 C212.701198,112.139664 212.426831,111.111743 212.015326,110.083823 C212.461099,111.180288 212.941209,112.276754 213.387007,113.373219 C212.906934,112.242544 212.289663,111.214561 211.569554,110.220912 C212.289663,111.146079 213.009834,112.071182 213.729943,112.996348 C212.975534,112.0027 212.152463,111.180351 211.192318,110.392274 C212.118226,111.111806 213.044071,111.831401 213.969979,112.550933 C212.975534,111.797128 211.946789,111.180357 210.815145,110.666391 C211.91249,111.111806 213.009834,111.591532 214.107179,112.036972 C212.941234,111.557291 211.775353,111.248908 210.540809,111.043324 C211.741053,111.180382 212.975534,111.3517 214.175778,111.523025 C213.489907,111.420231 212.838397,111.385966 212.152526,111.385966 C209.469934,111.350929 206.787261,111.351721 204.109157,111.360863 C202.868013,111.746051 201.576167,111.954257 200.27527,111.954257 L186.83676,111.954257 L159.969192,111.954257 C159.969038,112.118978 159.968956,112.283662 159.968956,112.448306 L159.968956,142.391538 L159.968956,176.857234 L159.968956,205.464213 L159.968956,217.283762 C159.968956,224.95798 153.578039,230.64512 146,230.987722 C138.456444,231.3304 132.031044,224.444277 132.031044,217.283762 L132.031044,217.078206 C131.961196,212.24752 132.031044,207.382317 132.031044,202.551694 L132.031044,172.608462 L132.031044,138.142766 L132.031044,111.954257 L127.976364,111.954257 L90.71299,111.954257 C89.4041877,111.954257 88.1256592,111.755087 86.9083057,111.385966 L82.9743881,111.385966 C81.2940715,111.385966 79.5794551,111.31744 77.8991385,111.523025 C79.0993826,111.385966 80.3338638,111.214648 81.5341078,111.043324 C80.2653268,111.214623 79.0993826,111.557272 77.9334384,112.036972 C79.0307829,111.591557 80.1281273,111.111831 81.2254718,110.666391 C80.0938902,111.180351 79.0650827,111.797128 78.0706378,112.550933 C78.9965457,111.831401 79.9223909,111.111806 80.8482988,110.392274 C79.8880911,111.180351 79.0307829,112.036972 78.2763742,112.996348 C78.996483,112.071182 79.7166545,111.146079 80.4367633,110.220912 C79.7166545,111.214561 79.0993951,112.242481 78.61931,113.373219 C79.0650827,112.276754 79.5451929,111.180288 79.9909906,110.083823 C79.5794802,111.111806 79.3051441,112.105454 79.1336824,113.20192 C79.2708505,112.002637 79.4423059,110.769145 79.6137675,109.569862 C79.4080185,111.248833 79.4765994,112.962076 79.4765994,114.641046 L79.4765994,123.823788 L79.4765994,179.4008 L79.4765994,202.049389 C79.4765994,207.668931 79.4423623,213.21949 80.1624711,218.804634 C80.025303,217.605351 79.8538477,216.371859 79.682386,215.172576 C80.6425311,222.059632 82.4600471,228.775639 85.1348086,235.217217 C84.6890359,234.120752 84.2089257,233.024286 83.763128,231.927821 C86.5064891,238.335565 90.0040709,244.400146 94.2562494,249.916746 C93.5361406,248.991579 92.8159691,248.066476 92.0958603,247.14131 C96.3485404,252.623637 101.252103,257.557606 106.738825,261.806378 C105.812917,261.086846 104.887072,260.367251 103.961164,259.64772 C109.516235,263.896366 115.55163,267.425732 121.964511,270.166895 C120.867166,269.72148 119.769822,269.241754 118.672478,268.796314 C125.222056,271.57175 132.114634,273.422082 139.179024,274.381458 C137.97878,274.244406 136.744299,274.073082 135.544055,273.901757 C142.505608,274.792651 149.534883,274.792651 156.496437,273.901757 C155.296193,274.038809 154.061711,274.210134 152.861467,274.381458 C159.89137,273.422019 166.783947,271.537477 173.368014,268.796314 C172.27067,269.241729 171.173325,269.721455 170.075981,270.166895 C176.522723,267.425732 182.558305,263.896492 188.079328,259.64772 C187.15342,260.367251 186.227574,261.086846 185.301667,261.806378 C190.788389,257.523271 195.692453,252.623637 199.944631,247.14131 C199.224522,248.066476 198.504351,248.991579 197.784242,249.916746 C202.036232,244.399958 205.568302,238.335565 208.277364,231.927821 C207.831591,233.024286 207.351481,234.120752 206.905683,235.217217 C209.580444,228.8101 211.432198,222.059632 212.358105,215.172576 C212.220944,216.371859 212.049482,217.605351 211.87802,218.804634 C212.666767,212.603025 212.563892,206.400853 212.563892,200.164722 L212.563892,147.226119 L212.563892,111.488238 L212.564883,111.488935 C212.564883,103.813677 218.840439,98.1257661 226.281689,97.7831175 C233.689078,97.4403937 239.998495,104.32745 239.998495,111.488935 L239.998495,115.120992 L239.998495,129 L278.252817,129 C285.944349,129 291.64432,135.176366 291.987695,142.5 C292.331145,149.790309 285.429487,156 278.252817,156 L271.866021,156 L239.998495,156 L239.998495,173.919107 L239.998495,192 L278.252817,192 C285.944349,192 291.64432,198.176366 291.987695,205.5 C292.331145,212.790309 285.429487,219 278.252817,219 L271.866021,219 L239.243328,219 C238.95106,221.763898 238.5517,224.528162 238.009542,227.303188 C236.179761,236.574103 232.756066,245.536502 228.092797,253.798657 C239.031922,263.435774 250.002967,273.041218 260.940677,282.646064 C263.673829,285.073842 264.815512,288.835178 264.988498,292.322788 C265.161522,295.981649 263.362449,299.400921 260.940677,301.999512 C258.587926,304.495565 254.539979,306 251.149461,306 C247.3781,306 244.126001,304.427165 241.358244,301.999512 C239.7668,300.597616 238.209897,299.22992 236.618453,297.828023 C228.183239,290.394763 219.728199,282.980741 211.283264,275.571703 C199.462687,287.016673 184.398436,295.440538 168.431005,299.292721 C150.873493,303.541618 131.772802,302.890631 114.79845,296.620102 C102.052963,291.933796 90.5769944,284.842736 80.9340804,275.572361 C71.0547628,284.431377 61.1535624,293.265894 51.2799336,302.099907 C45.5539702,307.213853 37.6801005,307.385502 31.9879182,302.099907 C29.4997075,299.765857 28,295.750088 28,292.386522 C28,289.057097 29.4656148,284.938401 31.9879182,282.673137 C33.5558113,281.26593 35.0896739,279.893052 36.657567,278.485844 C45.802662,270.274984 54.9714101,262.087508 64.1245158,253.904351 C58.0802667,243.16376 54.2722761,231.354768 52.7431682,219 L13.6876761,219 C6.02943859,219 0.35414071,212.823634 0.0122519818,205.5 C-0.329711766,198.209691 6.54207163,192 13.6876761,192 L20.1149691,192 L52.0438278,192 L52.0438278,167.271644 L52.0438278,156 L13.6876761,156 C6.02943859,156 0.35414071,149.823634 0.0122519818,142.5 C-0.329711766,135.209691 6.54207163,129 13.6876761,129 L20.1149691,129 L52.0438278,129 L52.0438278,112.825558 C52.0438278,106.315059 53.792744,100.215892 57.8048863,95.0076816 C62.8933778,88.4519144 70.3118635,84.5823286 78.4990105,84.0673381 C79.1307343,81.0706067 79.9727911,78.1266428 81.0457006,75.2930628 C84.0627519,67.2604411 88.0733679,60.3608102 93.5583459,53.7700056 C94.9722198,52.0630411 96.4766207,50.4406835 98.0612387,48.9053463 C91.3123519,39.4515951 84.5893588,29.9978075 77.8364736,20.5434749 C75.7200844,17.5654727 75.685941,13.3895726 76.4710511,10.0009215 C77.2558491,6.50981163 79.850183,3.70305393 82.7516822,1.82049086 C85.653556,-0.0278483327 89.9885771,-0.438609849 93.2655909,0.4513484 C96.8837887,1.44364027 99.3074057,3.77121375 101.423795,6.74909079 C102.447909,8.18664343 103.47196,9.62425867 104.496011,11.0618739 C110.06817,18.8626572 115.619977,26.6634405 121.182773,34.4645095 C136.147313,28.8910552 153.064323,28.3755121 168.053751,33.8262307 C168.899174,34.1331962 169.740199,34.4521435 170.575799,34.7841818 C177.250866,25.4613999 183.901215,16.1385769 190.580802,6.81522247 C192.76596,3.777492 195.190319,1.69526686 198.741505,0.534653702 C202.258662,-0.625959453 206.083078,0.227428901 209.258634,1.90006258 C212.229018,3.46989268 214.653377,6.88363336 215.541189,10.0581856 C216.394848,13.1647639 216.121679,17.8411723 214.175349,20.57199 C213.150921,22.0056226 212.126556,23.4393175 211.102192,24.8730124 C205.183797,33.1333861 199.288355,41.3937598 193.378336,49.6544746 Z M146.992256,84.0085672 L158.520416,84.0085672 L183.887185,84.0085672 C183.530626,82.9698327 183.143675,81.9407397 182.725916,80.9225515 C183.143232,81.9512234 183.590651,82.9798953 184.011813,84.0085672 L184.009109,84.0085672 C182.169256,79.6591887 179.766257,75.5761656 176.898362,71.8259857 C177.618242,72.7528411 178.338185,73.6796338 179.058065,74.6064892 C176.212771,70.9675491 172.956199,67.7408166 169.322385,64.8916432 C170.247999,65.6124889 171.17355,66.3333974 172.099163,67.0542431 C168.431437,64.2395929 164.420319,61.9053182 160.169493,60.0516701 C161.266488,60.497899 162.363484,60.9785004 163.460479,61.4247544 C158.969066,59.5367713 154.23857,58.2323569 149.370668,57.5457834 C150.57053,57.6830856 151.804619,57.8547227 153.004482,58.0263598 C147.965197,57.3741212 142.925975,57.3741212 137.886628,58.0263598 C139.086491,57.8890576 140.320579,57.7174205 141.520442,57.5457834 C136.686766,58.2323569 131.955769,59.5024364 127.43063,61.4247544 C128.527626,60.9785255 129.624622,60.4979241 130.721617,60.0516701 C126.470916,61.8708577 122.460049,64.2394046 118.791947,67.0542431 C119.71756,66.3333974 120.643111,65.6124889 121.568725,64.8916432 C117.935099,67.7068583 114.678401,70.9678001 111.833045,74.6064892 C112.552925,73.6796338 113.272868,72.7528411 113.992748,71.8259857 C111.125034,75.5759861 108.722034,79.6587699 106.882001,84.0085672 L106.879292,84.0085672 C107.300433,82.9798953 107.747854,81.9512234 108.165193,80.9225515 C107.739516,81.9407208 107.346468,82.9698132 106.985632,84.0085672 L123.851229,84.0085672 L146.089012,84.0085672 C146.392051,83.997069 146.693247,83.9972198 146.992256,84.0085672 Z M203.872305,111.361693 C202.697646,111.715582 201.467569,111.930188 200.209513,111.98878 C198.891612,112.054775 197.502788,111.826533 196.157953,111.385966 L196.446705,111.385966 C198.915401,111.385966 201.391833,111.370595 203.872305,111.361693 Z" id="Combined-Shape"></path>
        </g>
    </g>
</svg>