<?xml version="1.0" encoding="UTF-8"?>
<svg width="303px" height="303px" viewBox="0 0 303 303" version="1.1" xmlns="http://www.w3.org/2000/svg" xmlns:xlink="http://www.w3.org/1999/xlink">
    <!-- Generator: Sketch 53.2 (72643) - https://sketchapp.com -->
    <title>icon-leaf</title>
    <desc>Created with Sketch.</desc>
    <g id="Page-1" stroke="none" stroke-width="1" fill="none" fill-rule="evenodd">
        <g id="icon-leaf" fill="#000000" fill-rule="nonzero">
            <path d="M23.6840016,303 L87.03287,239.651132 C108.893337,258.132873 136.618443,268.233139 165.243345,268.143359 C203.461754,268.045941 239.432667,250.058645 262.443317,219.539382 C288.707001,184.320627 302.930171,141.582287 303,97.6478755 L303,0 L205.352125,0 C161.412725,0.0857280653 118.669397,14.3279132 83.4606179,40.6115486 C52.9263915,63.6331722 34.9384412,99.6270289 34.8566415,137.869379 C34.767017,166.494281 44.8671274,194.219387 63.3488684,216.075864 L0,279.315998 L23.6840016,303 Z M69.001994,137.252344 L69.001994,137.256239 C69.001994,109.573303 82.0329659,83.5077477 104.177642,66.8951942 C133.527738,44.8920366 169.220836,32.9960124 205.902972,33.000001 L270,33 L269.999999,97.1059104 C270.003894,133.794127 258.109611,169.493168 236.109502,198.845336 C221.924985,217.768291 200.715508,230.17386 177.269729,233.251071 C153.82395,236.332072 130.129914,229.82725 111.544578,215.208602 L204.336663,122.344826 L180.665558,98.670442 L87.8146496,191.530229 C75.6560649,176.074371 69.0269194,156.980904 69,137.310085 L69.001994,137.252344 Z" id="Shape"></path>
        </g>
    </g>
</svg>