<?xml version="1.0" encoding="UTF-8"?>
<svg width="289px" height="306px" viewBox="0 0 289 306" version="1.1" xmlns="http://www.w3.org/2000/svg" xmlns:xlink="http://www.w3.org/1999/xlink">
    <!-- Generator: Sketch 53.2 (72643) - https://sketchapp.com -->
    <title>icon-rain</title>
    <desc>Created with Sketch.</desc>
    <g id="Page-1" stroke="none" stroke-width="1" fill="none" fill-rule="evenodd">
        <g id="icon-rain" fill="#000000" fill-rule="nonzero">
            <path d="M253.25287,82.5899078 C252.731292,59.7680501 243.008996,38.1259212 226.300439,22.591198 C209.591882,7.05647492 187.316557,-1.05143854 164.54014,0.109516742 C141.766724,1.27114787 120.431321,11.6056774 105.388068,28.7624338 C92.4654542,24.0690506 78.2863602,24.1952087 65.4492616,29.1232386 C52.6151636,34.0483624 41.9842187,43.4406859 35.5082839,55.5789014 C29.0324992,67.7171169 27.145754,81.7852517 30.1928865,95.206075 C14.0911907,105.765812 3.32297065,122.764871 0.647231124,141.849293 C-2.02513278,160.933716 3.65655668,180.244172 16.235833,194.831958 C28.8151094,209.419744 47.0702242,217.861827 66.3194958,218 L216.707009,218 C238.065667,217.88853 258.293117,208.375936 272.014628,191.992649 C285.736888,175.610113 291.564704,154.011539 287.952043,132.940876 C284.339082,111.867961 271.648561,93.451876 253.252195,82.5895098 L253.25287,82.5899078 Z M216.706934,192.768019 L66.3194208,192.768019 C53.4965749,192.641883 41.4508711,186.602115 33.6711978,176.396747 C25.8915246,166.191454 23.2480409,152.965125 26.5097126,140.551314 C29.7710843,128.137503 38.5704191,117.923199 50.3558253,112.869364 C53.5116526,111.572789 56.0082594,109.05308 57.274116,105.88208 C58.5399726,102.714009 58.4696847,99.1646847 57.0777901,96.0462507 C55.120382,91.8339204 54.1153481,87.2377089 54.1387524,82.590884 C54.1592641,75.0319087 56.8579999,67.7244987 61.7541456,61.9692844 C66.6475909,56.213995 73.4225303,52.3827675 80.870643,51.1542275 C88.3222062,49.9251618 95.9641543,51.3771594 102.44609,55.2550429 C105.203445,56.8772264 108.473593,57.3875661 111.594014,56.6864873 C114.714735,55.9824798 117.451535,54.1197698 119.247664,51.4709745 C128.79166,37.2646666 144.002193,27.8809038 160.968047,25.7339626 C177.933901,23.5837923 194.999523,28.881458 207.77511,40.2631753 C220.550697,51.6448925 227.788772,67.9954383 227.627492,85.1146476 L227.627492,88.0597644 L227.627492,89.3211206 C227.501491,91.8819806 228.157862,94.4193363 229.508686,96.5987933 C230.859533,98.7782503 232.840346,100.491373 235.190376,101.515131 C248.763359,107.287992 258.88421,119.048109 262.582387,133.339273 C266.277413,147.630438 263.13034,162.830992 254.061578,174.473586 C244.992419,186.11618 231.033115,192.874652 216.288418,192.76877 L216.706934,192.768019 Z" id="Shape"></path>
            <path d="M117.909366,297.530087 L130.693857,256.463593 C131.630189,252.287844 130.387702,247.925965 127.391546,244.857318 C124.395359,241.788974 120.043792,240.424602 115.816943,241.224914 C111.587202,242.028176 108.050066,244.889827 106.4034,248.840965 L93.6189083,289.907459 L93.6218805,289.907459 C92.5607548,293.164806 92.8668871,296.708606 94.4690309,299.735597 C96.07415,302.765536 98.8414472,305.021774 102.143835,305.996271 L105.55321,305.996271 C108.24624,306.061241 110.894603,305.275702 113.112047,303.754851 C115.332459,302.233985 117.011846,300.054557 117.909523,297.529558 L117.909366,297.530087 Z" id="Path"></path>
            <path d="M37.5530793,305.998936 C40.3025645,306.034146 42.9866092,305.194975 45.2126474,303.6017 C47.4389899,302.011355 49.0856525,299.754961 49.9090599,297.167007 L62.6935226,256.364273 C63.6298527,252.215345 62.3903359,247.881481 59.3912185,244.832544 C56.3950384,241.783906 52.0434815,240.428297 47.8166418,241.22347 C43.5898782,242.021572 40.0528257,244.864843 38.4061632,248.790604 L25.6217004,289.593337 C24.560577,292.829763 24.8667086,296.350802 26.4718165,299.358351 C28.0739644,302.368829 30.8412554,304.610576 34.1435595,305.578815 L37.5530793,305.998936 Z" id="Path"></path>
            <path d="M173.553085,305.998936 C176.30257,306.034146 178.986615,305.194975 181.212653,303.6017 C183.438995,302.011355 185.085658,299.754961 185.912033,297.167007 L198.696496,256.364273 L198.693523,256.364273 C199.629853,252.215345 198.390336,247.881481 195.391219,244.832544 C192.395038,241.783906 188.046449,240.428297 183.816642,241.22347 C179.589878,242.021572 176.052826,244.864843 174.406163,248.790604 L161.6217,289.593337 C160.560577,292.829763 160.866709,296.350802 162.471817,299.358351 C164.076932,302.368829 166.841255,304.610576 170.14356,305.578815 L173.553085,305.998936 Z" id="Path"></path>
            <path d="M236.553085,305.998936 C239.30257,306.034146 241.986615,305.194975 244.212653,303.6017 C246.438995,302.011355 248.085658,299.754961 248.912033,297.167007 L261.696496,256.364273 L261.693523,256.364273 C262.629853,252.215345 261.390336,247.881481 258.391219,244.832544 C255.395038,241.783906 251.046449,240.428297 246.816642,241.22347 C242.589878,242.021572 239.052826,244.864843 237.406163,248.790604 L224.6217,289.593337 C223.560577,292.829763 223.866709,296.350802 225.471817,299.358351 C227.076932,302.368829 229.841255,304.610576 233.14356,305.578815 L236.553085,305.998936 Z" id="Path"></path>
        </g>
    </g>
</svg>