<?xml version="1.0" encoding="UTF-8"?>
<svg width="232px" height="308px" viewBox="0 0 232 308" version="1.1" xmlns="http://www.w3.org/2000/svg" xmlns:xlink="http://www.w3.org/1999/xlink">
    <!-- Generator: Sketch 53.2 (72643) - https://sketchapp.com -->
    <title>icon-fire</title>
    <desc>Created with Sketch.</desc>
    <g id="Page-1" stroke="none" stroke-width="1" fill="none" fill-rule="evenodd">
        <g id="icon-fire" transform="translate(0.884018, 0.869210)" fill="#000000" fill-rule="nonzero">
            <path d="M143.695982,0.02079 C144.082702,0.055946 144.473322,0.071571 144.867882,0.12626 C146.031982,0.28251 147.176482,0.59892 148.254582,1.06376 C152.270182,2.78646 155.219382,6.48956 156.008482,10.78646 C156.219422,11.95056 156.270202,13.13026 156.164732,14.30206 C156.129576,14.69659 156.059262,15.0794 156.008482,15.46616 C155.621762,17.14586 155.168642,18.79816 154.774082,20.48176 C152.254582,31.84076 150.934282,43.52876 151.371782,55.17676 C151.696002,63.88376 153.035882,72.67676 156.176482,80.83276 C157.504582,84.28196 159.223382,87.57106 161.086682,90.75466 C163.781982,95.38356 166.879682,99.75856 170.344482,103.84466 C177.684282,112.50876 186.574482,119.60266 195.020482,127.12966 C196.430682,128.39916 197.821282,129.67656 199.204082,130.96946 C202.118182,133.73506 204.954082,136.58666 207.629882,139.58666 C213.727582,146.45386 219.090882,154.10266 222.969882,162.45766 C227.860482,173.00866 230.372182,184.55966 230.907382,196.15266 C231.274572,204.09016 230.723792,212.07066 229.340982,219.89066 C228.196482,226.39066 226.469882,232.80466 224.063682,238.95666 C222.848882,242.08166 221.446482,245.13246 219.801982,248.06606 C218.227782,250.88246 216.423082,253.57776 214.567582,256.22226 C211.758982,260.20276 208.712082,264.01136 205.442582,267.61326 C198.872282,274.86716 191.399582,281.30826 183.243582,286.72226 C172.821582,293.64416 161.290582,298.87426 149.204582,302.14826 C129.349582,307.53106 108.063582,307.58966 88.1225818,302.60138 C77.8135818,300.01158 67.8415818,296.04668 58.5995818,290.78138 C46.7085818,284.00798 36.0605818,275.10938 27.2755818,264.60938 C18.4474818,254.04738 11.5415818,241.89438 6.93958182,228.91838 C2.46688182,216.32838 0.173981823,203.00838 0.00988182299,189.65638 C-0.181528177,173.97638 2.38098182,157.83238 10.0368818,143.95338 C14.0720818,136.63698 19.5212818,130.05138 26.2668818,125.07838 C28.0168818,123.79318 29.8645818,122.60958 31.7863818,121.59398 C32.7395018,121.08617 33.7277818,120.58618 34.7433818,120.21118 C35.1105718,120.07056 35.4699418,119.92993 35.8449818,119.81665 C37.3488818,119.35181 38.9230818,119.16821 40.4894818,119.26587 C45.2589818,119.57056 49.5792818,122.53147 51.5834818,126.85967 C52.2397318,128.28547 52.6420818,129.82447 52.7553818,131.39087 C52.7905378,131.77759 52.7827248,132.16821 52.7905378,132.56277 C52.7749128,133.98857 52.7631938,135.42217 52.7749128,136.85187 C52.8725688,144.88307 53.4819428,152.98887 55.5405128,160.77387 C56.8530128,165.76217 58.7788128,170.70357 61.8921128,174.85187 C63.9468128,177.58237 66.5483128,179.86747 69.5991128,181.42217 C71.5053128,182.39483 73.5522128,183.08627 75.6460128,183.53937 C77.4038128,183.92609 79.2085128,184.20343 81.0171128,184.15265 C84.7280128,184.066712 88.3843128,182.71905 91.2981128,180.42605 C92.5325128,179.45339 93.6419128,178.30885 94.5715128,177.03935 C95.7629128,175.40265 96.6535128,173.55495 97.2317128,171.61355 C99.1497128,165.18385 97.6535928,158.19955 95.1419128,152.14455 C94.6770728,151.02345 94.1692528,149.91405 93.6263128,148.82815 C92.3216128,146.20315 90.7552128,143.72655 89.3490128,141.15625 C88.8958928,140.28906 88.4388528,139.42185 88.0013128,138.55855 C84.9818128,132.44135 82.6029128,126.04655 81.1068128,119.38655 C80.0834128,114.85535 79.4545128,110.24205 79.2240128,105.61355 C79.0482328,102.26195 79.1029228,98.90265 79.3294828,95.55855 C80.8450828,74.03555 90.4854828,53.89055 103.032483,36.65255 C105.079383,33.84395 107.204383,31.10565 109.411383,28.42595 C112.134083,25.11735 114.966083,21.90645 117.899683,18.78535 C123.141883,13.21115 128.696683,7.91035 134.637683,3.07035 L134.926743,2.83597 C135.766583,2.22269 135.969743,2.03909 136.887643,1.55077 C138.270443,0.80858 139.793843,0.31637 141.340743,0.10547 C141.735273,0.054689 142.129803,0.035158 142.512643,0 C142.907173,0 143.301703,0.007812 143.692343,0.007812 L143.695982,0.02079 Z M124.933982,51.20079 C123.340182,53.36099 121.793382,55.56019 120.332382,57.80629 C112.195682,70.30229 105.887382,84.62629 105.394382,99.72029 C105.331882,101.63829 105.378757,103.56009 105.507662,105.47809 C105.699072,108.21639 106.101412,110.93899 106.706862,113.61479 C107.738062,118.19289 109.367062,122.62649 111.468562,126.81779 C112.562362,128.98969 113.812362,131.05999 115.019362,133.16159 C115.570142,134.15768 116.105262,135.14599 116.628762,136.15379 C117.933462,138.74359 119.148262,141.36859 120.179562,144.07959 C122.296762,149.63429 123.730362,155.47059 124.187362,161.40359 C124.660022,167.64189 124.038922,173.95859 122.140462,179.93459 C120.624862,184.67679 118.316262,189.17289 115.308462,193.14559 C112.753762,196.52449 109.691262,199.52449 106.269362,202.01669 C99.9959618,206.59479 92.5233618,209.45419 84.7963618,210.20809 C80.5893618,210.62997 76.3705618,210.36434 72.2143618,209.62215 C68.7924618,209.01668 65.4331618,208.09875 62.1943618,206.84095 C59.0341618,205.61435 56.0068618,204.05975 53.1748618,202.20425 C45.5810618,197.22375 39.6628618,190.10225 35.5888618,182.03625 C32.9560618,176.83705 31.0927618,171.31725 29.6982618,165.67325 L29.4951418,164.84903 C27.3857418,171.46233 26.4678418,178.38403 26.2763418,185.31403 C26.0497818,193.72423 26.8622818,202.15803 28.7880418,210.33703 C31.1786418,220.48503 35.2724418,230.22803 40.9330418,238.98503 C48.0463418,249.99303 57.6010418,259.38003 68.7420418,266.27803 C76.0467418,270.80143 83.9920418,274.25853 92.2690418,276.54403 C99.4878418,278.54793 106.941042,279.65733 114.425042,279.93073 C123.823442,280.27057 133.253042,279.27448 142.339042,276.81743 C151.702342,274.27833 160.636042,270.21973 168.710042,264.85643 C175.456142,260.37593 181.589042,254.99703 186.937042,248.92243 C189.448742,246.06303 191.776842,243.05133 193.921442,239.91853 C194.964442,238.38733 195.995642,236.84043 196.898042,235.22713 C198.413642,232.53183 199.593342,229.65293 200.581642,226.73103 C201.851142,223.01223 202.804342,219.18803 203.487842,215.32103 C203.960502,212.61013 204.312062,209.87963 204.519042,207.14133 C205.421382,195.32933 203.862792,183.08633 198.612842,172.36833 C197.511242,170.11833 196.241742,167.95813 194.851142,165.88393 C192.085542,161.76283 188.960542,157.93083 185.530842,154.35293 C179.265242,147.81773 172.194842,142.11093 165.448842,136.09893 C164.003542,134.80203 162.589442,133.50123 161.171542,132.17703 C157.374642,128.56373 153.706742,124.81763 150.319542,120.81003 C145.436742,115.06003 141.116442,108.84903 137.428542,102.26703 C136.100442,99.89593 134.830842,97.49753 133.694142,95.04043 C132.549642,92.54823 131.522242,89.99353 130.631642,87.39203 C126.596442,75.71203 125.100442,63.36503 125.041842,51.05203 C125.006686,51.094999 124.97153,51.137967 124.936372,51.19265 L124.933982,51.20079 Z" id="Shape"></path>
        </g>
    </g>
</svg>